<svg xmlns="http://www.w3.org/2000/svg" width="32" height="32" viewBox="0 0 40 40" version="1.1" xmlns:xlink="http://www.w3.org/1999/xlink">
<!--Icon from Stickies color icons by Streamline - https://creativecommons.org/licenses/by/4.0/-->
  <g fill="none" stroke-miterlimit="10">
    <path fill="#42b883" stroke="#35495e" d="M37 4.24c-1.89-1.44-4.45-2.38-7 0c-1.52 1-5.67 5-10.22 11c-1.19 1.58-2.32 3.08-3.35 4.49c-3.74-2.84-6.69-4.85-7.91-5c-2.07-.8-4.31 1.45-5.75 3.34S-.32 22.63 1 24.4c.47 1.14 3.13 3.53 6.87 6.38c4.49 3.41 7.73 6 9.63 6.24c2.91 1.13 5-2.31 13.37-13.36c4.55-6 7.45-11 8-12.69c1.56-3.08-.03-5.29-1.87-6.73Z"/>
    <path stroke="#35495e" stroke-linecap="round" d="M28.56 8.89c1.64-1.84 3.16-3.58 4.55-3.73"/>
  </g>
</svg>
